<svg id="Cyan" xmlns="http://www.w3.org/2000/svg" viewBox="0 0 969.22 244.66"><defs><style>.cls-1{fill:#009fdf;}</style></defs><title>Cyan</title><path class="cls-1" d="M928.62,58c-10.24-15.26-27.09-23.7-60-23.7-35,0-52.68,10-62.36,28-9.68-18-27.13-28-62.59-28-32.33,0-49.51,8.44-59.75,23.7h46a104.42,104.42,0,0,1,13.89-1.23,108.12,108.12,0,0,1,18.06,1.94c18,4.75,30.59,18.09,32,38.68V215.23H818.6V98C819.86,77,832.51,63.5,850.68,58.71a108.12,108.12,0,0,1,18.06-1.94A104.41,104.41,0,0,1,882.63,58h46Z"/><path class="cls-1" d="M673.87,86.25a141.83,141.83,0,0,0-1.45,21.14V215.23H694.5l1.81-20.63c0.16-1.37.73-21.7,0.73-21.7h0l0.09-73.58a63.76,63.76,0,0,1,1.76-13.05h-25Z"/><path class="cls-1" d="M913.68,86.25c2,5.38,1.85,16,1.85,16.07v70.56h0s0.57,20.33.73,21.7l1.81,20.63h22.08V107.39a141.83,141.83,0,0,0-1.45-21.14h-25Z"/><path class="cls-1" d="M389.27,58a40.69,40.69,0,0,1,15.06-3c13,0,26.05,5.07,35.83,12.67l13.39-16.65c-13.75-11.22-30-17-48.49-17-20.84,0-39.5,8.42-48.78,23.94h33Z"/><path class="cls-1" d="M418.44,116.56c-19.74-8.28-39.75-14.61-44.27-30.31H350.28c2.38,28.46,25.93,38.39,47.89,47.31,19.9,8,38.72,15.2,38.72,35.46S417,198.34,400,198.34c-16.65,0-30-7.24-40.53-18.45l-14.84,15.56a73.83,73.83,0,0,0,54.64,23.88c29.67,0,62.24-18.82,62.24-49.94C461.5,137.91,440.15,125.61,418.44,116.56Z"/><path class="cls-1" d="M72.86,58a40,40,0,0,1,17.92-4.27c13,0,26.05,5.07,35.83,12.67L140,49.75c-13.75-11.22-30-17-48.49-17C70.08,32.74,51,41.64,42,58H72.86Z"/><path class="cls-1" d="M104.89,115.25c-19.17-8-38.56-14.26-43.81-29H36.83c3,27.47,26.17,37.22,47.79,46,19.9,8,38.72,15.2,38.72,35.46S103.44,197,86.43,197c-16.65,0-30-7.24-40.53-18.45L31.07,194.14A73.83,73.83,0,0,0,85.71,218c29.68,0,62.24-18.82,62.24-49.94C147.95,136.6,126.6,124.3,104.89,115.25Z"/><path class="cls-1" d="M562.66,33.34c-32.73,0-49.56,8.53-59.78,23.94h44.74a105.78,105.78,0,0,1,15.3-1.47A108.18,108.18,0,0,1,581,57.75c18.22,4.11,28.66,19.5,28.66,43.38l0.07,32H516.13V101.37a87.59,87.59,0,0,1,1.59-15.83H492.94a142.23,142.23,0,0,0-1.41,20.9V214.28h22.08l1.81-20.63c0.16-1.37.73-21.7,0.73-21.7h0V154.09h93.58v17.85h0s0.57,20.33.73,21.7l1.81,20.63h22.08V106.44C634.33,60.84,619.42,33.34,562.66,33.34Z"/><path class="cls-1" d="M290.68,182.59c-14.66,19.12-47.46,15.94-47.46,15.94-31.31-3.33-42.54-24.25-43.79-49.19,0-.06-0.07-17.07-0.07-17.07h119s0,0.12,0-13.27c0-40,.75-85.86-72.47-85.86-29.39,0-47.83,6.77-59.23,24h44.47a65.51,65.51,0,0,1,13.55-1.27h4.47c45.4,0,45.13,37.09,45.13,42.25,0,0.67.05,13.29,0.05,13.29h-95s0.05-13.2.05-13.26a58.83,58.83,0,0,1,1.48-12.76H176.35c-0.67,5.12-.92,15.35-0.94,15.92,0,1.37-.08,39.81-0.08,39.81,0,59.89,31,77.41,68.18,77.41,1.93,0,4.2-.09,5.78-0.09,29.68,0,59-9.81,66.85-35.59Z"/></svg>